<?xml version="1.0" encoding="UTF-8"?>
<svg version="1.1" xmlns="http://www.w3.org/2000/svg" width="512" height="512">
<path d="M0 0 C3.69537522 0.01353525 7.39065392 -0.00212006 11.08601964 -0.01382196 C18.30037026 -0.03208357 25.51444785 -0.023764 32.72878964 -0.00573374 C38.59779861 0.008361 44.46673406 0.0121704 50.33575833 0.00882399 C51.1748964 0.00834655 52.01403447 0.00786911 52.87860097 0.0073772 C54.58392094 0.00635074 56.28924089 0.00529538 57.99456083 0.00421143 C73.03260864 -0.00433227 88.07052564 0.0122439 103.10854161 0.04204047 C117.66263394 0.07087731 132.21653791 0.07795592 146.77065098 0.06254828 C162.6644366 0.04574516 178.55813304 0.04179329 194.45192105 0.05925864 C196.15024033 0.0611028 197.84855963 0.06293753 199.54687893 0.06476271 C200.79990655 0.06613085 200.79990655 0.06613085 202.07824786 0.06752662 C207.93298669 0.07310612 213.78768161 0.06984917 219.64241803 0.06321776 C226.78765627 0.05544502 233.93270989 0.06237789 241.07791121 0.0873928 C244.71558791 0.09979668 248.35297856 0.10614686 251.99066556 0.09485114 C269.59369186 0.045733 285.05942603 0.54904441 301.37441075 7.6389643 C304.15329688 8.33036951 304.15329688 8.33036951 306.37441075 8.6389643 C306.37441075 9.2989643 306.37441075 9.9589643 306.37441075 10.6389643 C308.68441075 10.9689643 310.99441075 11.2989643 313.37441075 11.6389643 C313.37441075 12.2989643 313.37441075 12.9589643 313.37441075 13.6389643 C314.22905919 13.87872992 315.08370762 14.11849555 315.9642545 14.3655268 C319.70966455 15.76415644 322.72175565 17.69632599 325.93691075 20.0139643 C326.76352208 20.59404242 326.76352208 20.59404242 327.60683262 21.1858393 C330.17449336 23.00117239 332.65750237 24.87114016 335.0892545 26.8655268 C337.33342351 28.8096434 337.33342351 28.8096434 340.37441075 29.6389643 C342.0580045 31.34599555 342.0580045 31.34599555 343.81191075 33.4514643 C345.75408409 35.75162298 347.65270235 37.91012021 349.81191075 40.0139643 C351.37441075 41.6389643 351.37441075 41.6389643 351.37441075 43.6389643 C352.03441075 43.6389643 352.69441075 43.6389643 353.37441075 43.6389643 C363.28015882 55.24217624 370.12869007 68.4524241 375.37441075 82.6389643 C375.68120762 83.37630805 375.9880045 84.1136518 376.30409825 84.8733393 C380.6525188 95.36334351 381.82185477 106.50766179 381.7620908 117.75587714 C381.77016911 119.61898636 381.77016911 119.61898636 381.77841061 121.51973414 C381.79013495 124.92346461 381.78867031 128.32669783 381.7812438 131.73040712 C381.77647526 135.41832211 381.78905423 139.10618678 381.79926121 142.79408514 C381.81638288 150.00189436 381.81730309 157.20961614 381.81204831 164.4174404 C381.807993 170.28082237 381.80946625 176.14417866 381.81479657 182.00755942 C381.81554499 182.84475281 381.81629341 183.6819462 381.81706451 184.54450909 C381.81859612 186.24572392 381.82013447 187.94693874 381.82167948 189.64815356 C381.83538049 205.57122064 381.82998371 221.49423847 381.81849427 237.41730441 C381.80856411 251.95533883 381.82150307 266.49324593 381.84542846 281.03126071 C381.86986414 295.99315859 381.87941639 310.95499728 381.87277573 325.9169147 C381.86929346 334.30319298 381.87144971 342.68937341 381.88902676 351.07563651 C381.90380478 358.21439547 381.9043115 365.35298766 381.88695585 372.49174355 C381.8784893 376.12725579 381.87618843 379.76247085 381.8916074 383.39796698 C382.00084287 411.10560409 382.00084287 411.10560409 377.37441075 424.6389643 C377.09435909 425.54411213 376.81430743 426.44925997 376.52576935 427.38183653 C375.88381195 429.45025761 375.1806221 431.48020969 374.43691075 433.5139643 C374.18602696 434.2144892 373.93514317 434.9150141 373.67665684 435.63676703 C371.64585162 441.18085248 369.24290868 446.47312952 366.37441075 451.6389643 C365.71441075 451.6389643 365.05441075 451.6389643 364.37441075 451.6389643 C364.1217545 452.35439398 363.86909825 453.06982367 363.60878575 453.80693305 C362.26771047 456.88376715 360.63109104 459.26422383 358.62441075 461.9514643 C357.557067 463.38619086 357.557067 463.38619086 356.46816075 464.8499018 C355.77722325 465.77029242 355.08628575 466.69068305 354.37441075 467.6389643 C353.80722325 468.41497992 353.24003575 469.19099555 352.65566075 469.9905268 C347.60673398 476.86840152 347.60673398 476.86840152 344.37441075 479.6389643 C343.71441075 479.6389643 343.05441075 479.6389643 342.37441075 479.6389643 C342.37441075 480.2989643 342.37441075 480.9589643 342.37441075 481.6389643 C341.05441075 481.9689643 339.73441075 482.2989643 338.37441075 482.6389643 C338.37441075 483.2989643 338.37441075 483.9589643 338.37441075 484.6389643 C337.00429356 485.87236273 337.00429356 485.87236273 335.07753575 487.2483393 C334.01925572 488.0052204 334.01925572 488.0052204 332.9395963 488.77739203 C332.17558506 489.30921088 331.41157383 489.84102973 330.62441075 490.3889643 C329.46002476 491.20312811 329.46002476 491.20312811 328.27211583 492.03373969 C322.22296883 496.19381753 316.10329167 499.6839033 309.37441075 502.6389643 C308.48366856 503.06435492 307.59292637 503.48974555 306.675192 503.9280268 C288.15438191 512.3489251 269.75585989 513.38887487 249.67452848 513.30724669 C246.00293216 513.29785854 242.33146199 513.31757342 238.65990269 513.33322394 C231.49496838 513.35911694 224.33028663 513.35827979 217.16532351 513.34718575 C211.33358634 513.33857624 205.50192145 513.33949805 199.6701833 513.34698164 C198.41821113 513.34856398 198.41821113 513.34856398 197.14094659 513.35017828 C195.44457534 513.35234953 193.74820411 513.35453631 192.0518329 513.35673843 C176.1971961 513.37610299 160.34270011 513.36423342 144.48807488 513.34195248 C130.93136912 513.32371035 117.37493591 513.33460592 103.8182584 513.36625922 C88.01778642 513.40315024 72.21748439 513.41999842 56.4169693 513.40684694 C54.72673613 513.40550606 53.03650294 513.40419707 51.34626973 513.40292037 C50.51497563 513.4022897 49.68368153 513.40165903 48.82719669 513.40100926 C43.01432112 513.39800148 37.20157548 513.40915538 31.38872731 513.42617095 C24.28753742 513.44664756 17.1867313 513.44539809 10.08556058 513.41753855 C6.47343955 513.40391019 2.86198502 513.39926163 -0.7501086 513.4214884 C-22.03062631 513.54267874 -41.31401222 511.09996745 -60.62558925 501.6389643 C-61.66457363 501.13880805 -62.703558 500.6386518 -63.77402675 500.1233393 C-71.08322811 496.40797329 -77.39767215 491.99410156 -83.75058925 486.8733393 C-86.50458946 484.63097298 -86.50458946 484.63097298 -89.27402675 483.09599555 C-91.81683301 481.52046941 -93.36247858 479.8827182 -95.25058925 477.5764643 C-97.34400667 475.03310422 -98.84070811 473.49555172 -101.62558925 471.6389643 C-102.66148831 469.99436984 -103.6573313 468.3242697 -104.62558925 466.6389643 C-105.87996205 464.89781996 -107.15174674 463.16912481 -108.43808925 461.4514643 C-121.62558925 443.43986044 -121.62558925 443.43986044 -121.62558925 435.6389643 C-122.28558925 435.6389643 -122.94558925 435.6389643 -123.62558925 435.6389643 C-125.94043765 428.3685424 -128.21376346 421.14540439 -129.62558925 413.6389643 C-129.79582984 412.85390666 -129.96607044 412.06884903 -130.14146984 411.26000178 C-130.83950868 406.03892462 -130.77002326 400.86668091 -130.76603115 395.60470831 C-130.76900227 394.38242712 -130.77197339 393.16014593 -130.77503455 391.90082592 C-130.78220036 388.51531315 -130.78489275 385.12985115 -130.78563201 381.74433446 C-130.78748699 378.08967814 -130.79503678 374.43503273 -130.80176723 370.78038275 C-130.81533574 362.79018352 -130.82137358 354.79998931 -130.82577789 346.80978048 C-130.82854404 341.8148098 -130.8327822 336.81984104 -130.83728206 331.82487166 C-130.84947511 317.98005001 -130.85977285 304.13522991 -130.86315715 290.29040301 C-130.86337672 289.4046393 -130.86359629 288.5188756 -130.8638225 287.60627057 C-130.86404078 286.71844263 -130.86425906 285.8306147 -130.86448395 284.91588289 C-130.86492741 283.11695234 -130.86537397 281.31802179 -130.86582363 279.51909125 C-130.86604506 278.62676849 -130.86626649 277.73444573 -130.86649463 276.81508289 C-130.87043708 262.37747219 -130.88787405 247.93991213 -130.91118315 233.50232097 C-130.93495201 218.65933404 -130.9473616 203.81637245 -130.94852507 188.9733662 C-130.94943898 180.64786823 -130.95511877 172.32243618 -130.97334468 163.99695647 C-130.98882087 156.90271391 -130.99382232 149.80855762 -130.98560658 142.71430137 C-130.98172585 139.10103816 -130.98250161 135.48794824 -130.99666393 131.87470686 C-131.13118209 95.42247508 -131.13118209 95.42247508 -124.58652675 82.60380805 C-123.55937281 80.50357052 -122.91079644 78.44228516 -122.25058925 76.2014643 C-120.82706301 71.7529448 -118.64046823 68.05012041 -116.15683925 64.11162055 C-114.73231642 61.8113069 -113.48822527 59.48065589 -112.25058925 57.0764643 C-109.89365605 52.75286929 -106.87748451 49.33550795 -103.49277675 45.7795893 C-101.51357491 43.64525662 -101.51357491 43.64525662 -100.00840175 40.8733393 C-99.55207363 40.13599555 -99.0957455 39.3986518 -98.62558925 38.6389643 C-97.96558925 38.6389643 -97.30558925 38.6389643 -96.62558925 38.6389643 C-96.62558925 37.9789643 -96.62558925 37.3189643 -96.62558925 36.6389643 C-94.25058925 34.0139643 -94.25058925 34.0139643 -91.62558925 31.6389643 C-90.96558925 31.6389643 -90.30558925 31.6389643 -89.62558925 31.6389643 C-89.62558925 30.9789643 -89.62558925 30.3189643 -89.62558925 29.6389643 C-88.98621425 29.3502143 -88.34683925 29.0614643 -87.68808925 28.7639643 C-85.47352846 27.81072979 -85.47352846 27.81072979 -84.62558925 25.6389643 C-82.64669964 24.91202526 -80.64604368 24.24080178 -78.62558925 23.6389643 C-78.62558925 22.9789643 -78.62558925 22.3189643 -78.62558925 21.6389643 C-77.90113613 21.25224555 -77.176683 20.8655268 -76.43027675 20.4670893 C-70.20640846 17.16645485 -70.20640846 17.16645485 -64.31308925 13.3264643 C-61.35061026 11.46630307 -59.04996958 11.11678481 -55.62558925 10.6389643 C-55.29558925 9.9789643 -54.96558925 9.3189643 -54.62558925 8.6389643 C-52.64812322 7.90816163 -50.64486436 7.24474683 -48.62558925 6.6389643 C-46.55327236 5.948192 -44.4922974 5.22277493 -42.44178283 4.46974528 C-28.47795453 -0.26558334 -14.59968114 -0.07542238 0 0 Z " fill="#011C3C" transform="translate(130.62558925151825,-0.6389642953872681)"/>
<path d="M0 0 C0.71355652 0.21887878 1.42711304 0.43775757 2.16229248 0.66326904 C6.40604984 1.96533232 10.64484486 3.28189819 14.87747192 4.61972046 C16.80075342 5.22657299 18.72638487 5.82596247 20.65209961 6.42504883 C34.03486684 10.72336978 45.19790212 15.16145141 52.3125 27.8125 C57.5299775 39.22851915 57.15206176 53.48415359 57.203125 65.7890625 C57.20882507 66.89059662 57.21452515 67.99213074 57.22039795 69.12704468 C57.22979105 71.45154886 57.2363591 73.77606601 57.24023438 76.10058594 C57.24984015 79.56731091 57.2808778 83.03341612 57.3125 86.5 C57.40883691 106.61068822 55.7042987 126.42190806 51.25 146.0625 C50.86485229 147.79717529 50.86485229 147.79717529 50.47192383 149.56689453 C46.02844288 169.10751962 40.11194011 187.67456295 32 206 C31.64180176 206.81807129 31.28360352 207.63614258 30.91455078 208.47900391 C19.95539519 233.29133467 4.92657309 255.69794881 -13 276 C-13.72316406 276.83402344 -14.44632813 277.66804688 -15.19140625 278.52734375 C-24.91321138 289.57403576 -35.2859701 300.06824981 -47 309 C-47.55768066 309.42877441 -48.11536133 309.85754883 -48.68994141 310.29931641 C-81.58477657 335.47730726 -81.58477657 335.47730726 -100.59765625 334.6015625 C-122.07582009 330.80404559 -142.10061443 313.49642057 -157.6484375 299.1640625 C-159.21719481 297.72038883 -160.80606886 296.29827663 -162.4140625 294.8984375 C-173.99192377 284.79078084 -183.77711722 273.24952962 -193 261 C-193.76763672 259.99308105 -193.76763672 259.99308105 -194.55078125 258.96582031 C-219.1895932 226.51872306 -234.78437678 189.51852402 -244 150 C-244.17756836 149.24396484 -244.35513672 148.48792969 -244.53808594 147.70898438 C-246.34377592 139.85714538 -247.50392431 131.90996896 -248.625 123.9375 C-248.8101416 122.62591919 -248.8101416 122.62591919 -248.99902344 121.2878418 C-250.94907606 106.70971293 -251.24085909 92.1846397 -251.25 77.5 C-251.25067474 76.52532776 -251.25134949 75.55065552 -251.25204468 74.54644775 C-251.20788027 34.40636656 -251.20788027 34.40636656 -243 23 C-242.58105469 22.36449219 -242.16210938 21.72898438 -241.73046875 21.07421875 C-233.30669091 9.73731889 -216.66579755 6.65359106 -203.9375 2.6875 C-202.8966626 2.3598465 -201.8558252 2.03219299 -200.78344727 1.6946106 C-128.25621867 -21.12463739 -73.23639686 -22.57719931 0 0 Z " fill="#C7FA05" transform="translate(353,92)"/>
<path d="M0 0 C0.69609375 0.4125 1.3921875 0.825 2.109375 1.25 C9.09863619 5.87447357 13.41878486 13.10313176 16 21 C16.99363153 31.80090374 15.85635038 40.33934688 9 49 C1.14861398 56.7065265 1.14861398 56.7065265 -4 59 C-3.96009269 69.79492655 -1.62877641 79.87478552 0.91650391 90.31567383 C4.52445362 105.49375667 4.52445362 105.49375667 1.75 111.875 C-0.87664708 115.06450003 -3.07719596 116.69239865 -7 118 C-10.43263258 118.27959315 -13.86972881 118.27744123 -17.3125 118.3125 C-18.71918945 118.35600586 -18.71918945 118.35600586 -20.15429688 118.40039062 C-26.12655796 118.45510479 -29.44213456 117.94724232 -34 114 C-37.40771567 109.9107412 -37.33500652 106.10328459 -37 101 C-36.55820537 97.98124127 -35.91981621 95.02242251 -35.25 92.046875 C-34.98364746 90.81290985 -34.98364746 90.81290985 -34.71191406 89.55401611 C-34.14901571 86.9509204 -33.57528887 84.35038292 -33 81.75 C-32.42617553 79.13505495 -31.85477158 76.51963886 -31.28808594 73.90313721 C-30.93645574 72.28167368 -30.58051788 70.66113673 -30.21972656 69.04168701 C-29.46602015 65.58451378 -29 62.55723836 -29 59 C-29.556875 58.74347656 -30.11375 58.48695313 -30.6875 58.22265625 C-39.54508765 53.77890029 -46.07907734 47.21015265 -49.375 37.734375 C-51.42079208 28.78403466 -50.77098956 19.92599878 -46 12 C-35.3261873 -2.55908052 -16.61849601 -10.46834394 0 0 Z " fill="#021E3C" transform="translate(273,186)"/>
<path d="M0 0 C-1.47721422 3.45201639 -3.43794001 5.64961936 -6.125 8.25 C-6.84945312 8.95640625 -7.57390625 9.6628125 -8.3203125 10.390625 C-8.87460937 10.92171875 -9.42890625 11.4528125 -10 12 C-10.33 11.01 -10.66 10.02 -11 9 C-9.68 8.34 -8.36 7.68 -7 7 C-7 6.34 -7 5.68 -7 5 C-2.47619048 0 -2.47619048 0 0 0 Z " fill="#000E1F" transform="translate(41,31)"/>
<path d="" fill="#000000" transform="translate(0,0)"/>
<path d="" fill="#000000" transform="translate(0,0)"/>
<path d="" fill="#000000" transform="translate(0,0)"/>
</svg>
